/vscmnt/brussel_pixiu_data/_data_brussel/112/vsc11236/PredSimResults/SUBJ11opt3D/trackIG/worker_09.mot
version=1
nRows=8
nColumns=50
inDegrees=yes
endheader
                time	         pelvis_tilt	         pelvis_list	     pelvis_rotation	           pelvis_tx	           pelvis_ty	           pelvis_tz	       hip_flexion_r	     hip_adduction_r	      hip_rotation_r	        knee_angle_r	       ankle_angle_r	         mtp_angle_r	       hip_flexion_l	     hip_adduction_l	      hip_rotation_l	        knee_angle_l	       ankle_angle_l	         mtp_angle_l	    lumbar_extension	      lumbar_bending	     lumbar_rotation	 ercspn_r/activation	 intobl_r/activation	 extobl_r/activation	    abd_r/activation	    add_r/activation	hamstrings_r/activation	bifemsh_r/activation	glut_max_r/activation	iliopsoas_r/activation	rect_fem_r/activation	  vasti_r/activation	gastroc_r/activation	 soleus_r/activation	tib_ant_r/activation	 ercspn_l/activation	 intobl_l/activation	 extobl_l/activation	    abd_l/activation	    add_l/activation	hamstrings_l/activation	bifemsh_l/activation	glut_max_l/activation	iliopsoas_l/activation	rect_fem_l/activation	  vasti_l/activation	gastroc_l/activation	 soleus_l/activation	tib_ant_l/activation	
          1.74755328	         -6.05090128	          2.65682486	         -7.82904076	          2.44657460	          0.93073254	          0.00693762	        -13.77661220	         -4.10943281	          0.96034909	        -11.74312263	          8.88500521	         36.69643876	         34.75637399	         -1.28014108	         -7.29327843	         -8.26481085	          2.91861849	          0.27524159	        -13.63722061	         -0.79412792	          1.99688067	          0.02377724	          0.01000005	          0.01000009	          0.03187682	          0.01706639	          0.01157241	          0.26961771	          0.01609879	          0.08588533	          0.01194221	          0.01000020	          0.19197199	          0.31750844	          0.01425924	          0.06602040	          0.24092177	          0.03043909	          0.01000003	          0.22511991	          0.06288242	          0.20737837	          0.06187814	          0.13063767	          0.03060104	          0.01000001	          0.01100250	          0.01000000	          0.50378661	
          1.75920364	         -6.06348838	          2.79279202	         -8.03780115	          2.46709264	          0.92850801	          0.00630946	        -14.80967048	         -4.48686676	          0.70089386	        -11.88110994	          7.52091261	         38.58663083	         34.91887038	         -1.11613422	         -7.37498527	        -10.36527514	          2.23858746	          0.26946842	        -13.16176423	         -1.23445135	          2.23293559	          0.05509628	          0.01000005	          0.01000013	          0.02669365	          0.11726913	          0.01000644	          0.22577815	          0.01348117	          0.15406505	          0.01000089	          0.01000030	          0.16075735	          0.28335390	          0.01194069	          0.05528553	          0.20174789	          0.02548969	          0.01000002	          0.26548796	          0.05265788	          0.17365866	          0.18578732	          0.10939597	          0.02562538	          0.01000004	          0.01426038	          0.01223454	          0.54547761	
          1.77085399	         -6.05530262	          2.90571063	         -8.20540321	          2.48793930	          0.92650890	          0.00563434	        -15.68987508	         -4.83084664	          0.39832301	        -12.34352771	          6.05935803	         40.42566541	         34.96844366	         -0.98632150	         -7.39298949	        -12.59731121	          1.79187910	          0.21496414	        -12.66732101	         -1.65073050	          2.45902259	          0.06472154	          0.01000003	          0.01000010	          0.02235326	          0.09820168	          0.01000105	          0.18906683	          0.01128918	          0.26275456	          0.01000088	          0.01426003	          0.13461820	          0.24217493	          0.01000000	          0.04629668	          0.16894368	          0.02134507	          0.10380132	          0.30177264	          0.05316398	          0.14542177	          0.20229171	          0.09160818	          0.02145876	          0.01000001	          0.01194167	          0.01024521	          0.63186401	
          1.78250435	         -6.03016612	          2.98287260	         -8.32703051	          2.50876759	          0.92493089	          0.00487797	        -16.27120941	         -5.12717683	          0.08225100	        -13.34473310	          4.54562470	         42.13040354	         34.99968354	         -0.87442330	         -7.43534021	        -14.81715224	          1.27484758	          0.17487099	        -12.19746313	         -2.02653432	          2.66772376	          0.08074676	          0.01000003	          0.01000007	          0.01871862	          0.14863512	          0.01001768	          0.15832481	          0.01000069	          0.38442594	          0.01000212	          0.01194171	          0.11272927	          0.20279728	          0.01000000	          0.06509254	          0.14147343	          0.01787436	          0.14784981	          0.39817155	          0.04452044	          0.12177620	          0.24937983	          0.07671268	          0.01796965	          0.01000003	          0.01000004	          0.01000000	          0.68144670	
          1.79415471	         -5.98684895	          3.03029511	         -8.40379701	          2.52936138	          0.92385905	          0.00405324	        -16.42259591	         -5.38135986	         -0.23149764	        -15.10065555	          3.05953412	         43.56169407	         35.09262562	         -0.78286809	         -7.49652226	        -17.19062209	          0.95786014	          0.11038278	        -11.77607049	         -2.37293500	          2.85106349	          0.12985193	          0.01000003	          0.01000005	          0.01567497	          0.20288409	          0.01194139	          0.14309228	          0.01000006	          0.44777916	          0.01000010	          0.01000003	          0.09439948	          0.16982243	          0.01000002	          0.08735577	          0.11846985	          0.01496799	          0.19050039	          0.46386112	          0.03993330	          0.10197540	          0.28766401	          0.06423920	          0.01504789	          0.04065332	          0.01000011	          0.01000005	          0.68395632	
          1.80580506	         -5.92548061	          3.05757292	         -8.43606744	          2.54960606	          0.92337245	          0.00318768	        -16.05336621	         -5.60532493	         -0.56024393	        -17.75790226	          1.69122880	         44.42029447	         35.20854978	         -0.70176653	         -7.56535662	        -19.68162420	          1.07488869	          0.04558241	        -11.40935629	         -2.70407131	          3.00144742	          0.17002772	          0.01000002	          0.01000005	          0.01312622	          0.22253034	          0.01000013	          0.12165668	          0.01000001	          0.37497065	          0.01000010	          0.01000000	          0.07905012	          0.14220928	          0.01000001	          0.07941518	          0.09920665	          0.01253420	          0.20251312	          0.45095971	          0.03344028	          0.08539421	          0.29002991	          0.05379390	          0.01260123	          0.09504633	          0.01000006	          0.01000001	          0.65211225	
          1.81745542	         -5.84839260	          3.07051979	         -8.42228525	          2.56945386	          0.92354010	          0.00229753	        -15.14567864	         -5.81575587	         -0.91080807	        -21.32684261	          0.43559862	         44.44626474	         35.25490717	         -0.60652337	         -7.60555680	        -22.10547117	          1.56909451	          0.00447179	        -11.09591397	         -3.02620916	          3.11320195	          0.16844358	          0.01000002	          0.01000008	          0.01099190	          0.22513291	          0.01000012	          0.11073457	          0.01000000	          0.31400041	          0.01000005	          0.01000000	          0.06619656	          0.11908604	          0.01000001	          0.06650232	          0.08307565	          0.01049615	          0.21366773	          0.43700730	          0.03445244	          0.07150914	          0.24287691	          0.04504701	          0.01055246	          0.13193139	          0.01000003	          0.01000000	          0.55218992	
          1.82910577	         -5.75996531	          3.06660603	         -8.36239250	          2.58889385	          0.92434748	          0.00140609	        -13.73451199	         -6.01993322	         -1.27004970	        -25.66899311	         -0.93669620	         43.73423581	         35.14460117	         -0.47838847	         -7.57248011	        -24.28640806	          2.36261444	          0.02128951	        -10.83079154	         -3.33755149	          3.18414799	          0.15240465	          0.01000003	          0.01000007	          0.01000000	          0.26953133	          0.01000052	          0.10365538	          0.01000000	          0.26294393	          0.01000003	          0.01000000	          0.05543300	          0.09972264	          0.01000002	          0.05568906	          0.06956755	          0.01000001	          0.22358182	          0.39655623	          0.04204055	          0.05988179	          0.20338513	          0.03772236	          0.01000036	          0.21444805	          0.01000005	          0.01000001	          0.46240381	
